<svg data-v-fde0c5aa="" xmlns="http://www.w3.org/2000/svg" viewBox="0 0 300 300" class="iconAbove"><!----><defs data-v-fde0c5aa=""><!----></defs><rect data-v-fde0c5aa="" fill="transparent" x="0" y="0" width="300px" height="300px" class="logo-background-square"></rect><defs data-v-fde0c5aa=""><!----></defs><g data-v-fde0c5aa="" id="d7e58e52-f581-4a8c-8a3a-0182024a1b6e" fill="#000000" transform="matrix(4.788213695269192,0,0,4.788213695269192,18.180478675929802,167.85819487960833)"><path d="M4.10 5.94C2.06 5.94 0.38 7.36 0.38 9.91C0.38 12.49 1.90 13.78 3.93 13.78C5.80 13.78 7.17 12.84 7.49 11.00L5.56 11.00C5.36 11.94 4.80 12.42 4.05 12.42C3.08 12.42 2.38 11.63 2.38 9.79C2.38 8.09 3.08 7.29 4.06 7.29C4.86 7.29 5.42 7.74 5.60 8.82L7.50 8.82C7.36 7.17 6.12 5.94 4.10 5.94ZM12.10 5.94C9.62 5.94 8.23 7.59 8.23 9.86C8.23 12.11 9.62 13.78 12.10 13.78C14.57 13.78 15.96 12.11 15.96 9.86C15.96 7.59 14.57 5.94 12.10 5.94ZM12.10 12.42C10.93 12.42 10.23 11.45 10.23 9.86C10.23 8.25 10.93 7.29 12.10 7.29C13.26 7.29 13.96 8.25 13.96 9.86C13.96 11.45 13.26 12.42 12.10 12.42ZM24.16 8.02C24.01 6.72 23.10 5.94 21.52 5.94C20.80 5.94 20.26 6.08 19.73 6.45L19.15 7.34L19.15 6.13L17.22 6.13L17.22 13.58L19.15 13.58L19.15 10.18C19.15 8.11 19.89 7.29 20.83 7.29C21.77 7.29 22.20 7.83 22.26 8.61C22.29 8.99 22.29 9.34 22.29 9.65L22.29 13.58L24.22 13.58L24.22 9.38C24.22 8.78 24.21 8.40 24.16 8.02ZM32.97 6.13L30.88 6.13L29.05 12.12L27.17 6.13L25.03 6.13L27.93 13.58L30.09 13.58ZM36.95 5.94C34.47 5.94 33.08 7.59 33.08 9.86C33.08 12.11 34.47 13.78 36.95 13.78C39.42 13.78 40.81 12.11 40.81 9.86C40.81 7.59 39.42 5.94 36.95 5.94ZM36.95 12.42C35.78 12.42 35.08 11.45 35.08 9.86C35.08 8.25 35.78 7.29 36.95 7.29C38.11 7.29 38.81 8.25 38.81 9.86C38.81 11.45 38.11 12.42 36.95 12.42ZM49.11 13.58L51.00 13.58C50.89 12.75 50.86 12.25 50.86 11.69L50.86 9.28C50.86 8.88 50.85 8.48 50.82 8.13C50.71 6.85 49.92 5.94 47.84 5.94C46.06 5.94 44.70 6.89 44.65 8.57L46.52 8.55C46.58 7.74 47.00 7.29 47.77 7.29C48.52 7.29 48.86 7.67 48.92 8.19C48.94 8.44 48.94 8.67 48.94 8.89L48.94 9.04L48.47 9.04C45.77 9.04 44.37 9.97 44.37 11.61C44.37 13.02 45.47 13.78 46.76 13.78C47.46 13.78 48.09 13.64 48.61 13.29L48.97 12.49ZM47.50 12.42C46.82 12.42 46.37 12.11 46.37 11.45C46.37 10.47 47.40 10.12 48.94 10.23L48.94 10.84C48.94 11.87 48.29 12.42 47.50 12.42ZM53.62 3.36C52.99 3.36 52.56 3.78 52.56 4.38C52.56 5.00 52.99 5.40 53.62 5.40C54.25 5.40 54.68 5.00 54.68 4.38C54.68 3.78 54.25 3.36 53.62 3.36ZM54.59 13.58L54.59 6.13L52.65 6.13L52.65 13.58Z"></path></g><defs data-v-fde0c5aa=""><linearGradient data-v-fde0c5aa="" gradientTransform="rotate(25)" id="16b22858-0a38-4bfb-b353-739d93c6a563" x1="0%" y1="0%" x2="100%" y2="0%"><stop data-v-fde0c5aa="" offset="0%" stop-color="#4F7E48" stop-opacity="1"></stop><stop data-v-fde0c5aa="" offset="100%" stop-color="#CAE6A5" stop-opacity="1"></stop></linearGradient></defs><g data-v-fde0c5aa="" id="72142233-8430-4360-935c-e095c4285b4a" stroke="none" fill="url(#16b22858-0a38-4bfb-b353-739d93c6a563)" transform="matrix(3.320015136764172,0,0,3.320015136764172,96.87975781177325,62.933164672541544)"><path d="M17.572 23.933l4.106 7.095L32 13.189h-8.981V7.582L11.51.972 0 7.582v13.222l11.51 6.611 6.062-3.482zm10.96-8.744l-6.855 11.846-6.855-11.846h13.71z"></path></g><!----></svg>